HIERARCHY
ROOT Hips
{
  OFFSET 5.84602e-005 68.8428 3.50346
  CHANNELS 6 Xposition Yposition Zposition Zrotation Xrotation Yrotation
  JOINT Spine
  {
    OFFSET 0 8.597 -4.6522
    CHANNELS 3 Zrotation Xrotation Yrotation
    JOINT Spine1
    {
      OFFSET 0 7.8454 0.4098
      CHANNELS 3 Zrotation Xrotation Yrotation
      JOINT Spine2
      {
        OFFSET 0 9.7078 -2.1609
        CHANNELS 3 Zrotation Xrotation Yrotation
        JOINT Neck
        {
          OFFSET 0 21.8761 -0.4549
          CHANNELS 3 Zrotation Xrotation Yrotation
          JOINT Head
          {
            OFFSET 0 12.3537 3.3602
            CHANNELS 3 Zrotation Xrotation Yrotation
            End Site
            {
              OFFSET 0.0001 18.9506 0.5657
            }
          }
        }
        JOINT LeftShoulder
        {
          OFFSET 2.2086 21.1115 7.2329
          CHANNELS 3 Zrotation Xrotation Yrotation
          JOINT LeftArm
          {
            OFFSET 13.1193 3.0282 -4.8998
            CHANNELS 3 Zrotation Xrotation Yrotation
            JOINT LeftForeArm
            {
              OFFSET 27.4081 -0.0973053 -0.2375
              CHANNELS 3 Zrotation Xrotation Yrotation
              JOINT LeftHand
              {
                OFFSET 22.8641 0.0662994 -0.1369
                CHANNELS 3 Zrotation Xrotation Yrotation
                JOINT LeftHandIndex1
                {
                  OFFSET 8.8614 0.775009 2.4612
                  CHANNELS 3 Zrotation Xrotation Yrotation
                  JOINT LeftHandIndex2
                  {
                    OFFSET 3.3146 -0.808304 0.5841
                    CHANNELS 3 Zrotation Xrotation Yrotation
                    JOINT LeftHandIndex3
                    {
                      OFFSET 2.2628 -0.552002 0.3989
                      CHANNELS 3 Zrotation Xrotation Yrotation
                      End Site
                      {
                        OFFSET 1.6102 -0.4807 0.2612
                      }
                    }
                  }
                }
                JOINT LeftHandMiddle1
                {
                  OFFSET 8.9937 0.895004 0.2143
                  CHANNELS 3 Zrotation Xrotation Yrotation
                  JOINT LeftHandMiddle2
                  {
                    OFFSET 4.0984 0.0113983 -0.0242
                    CHANNELS 3 Zrotation Xrotation Yrotation
                    JOINT LeftHandMiddle3
                    {
                      OFFSET 2.2716 0.00689697 -0.0138001
                      CHANNELS 3 Zrotation Xrotation Yrotation
                      End Site
                      {
                        OFFSET 2.0404 -0.1441 0.0027
                      }
                    }
                  }
                }
                JOINT LeftHandRing1
                {
                  OFFSET 8.5234 0.597198 -2.0164
                  CHANNELS 3 Zrotation Xrotation Yrotation
                  JOINT LeftHandRing2
                  {
                    OFFSET 3.7188 -0.188293 -0.2328
                    CHANNELS 3 Zrotation Xrotation Yrotation
                    JOINT LeftHandRing3
                    {
                      OFFSET 2.1191 -0.106598 -0.1332
                      CHANNELS 3 Zrotation Xrotation Yrotation
                      End Site
                      {
                        OFFSET 1.8737 -0.2304 -0.0886
                      }
                    }
                  }
                }
                JOINT LeftHandPinky1
                {
                  OFFSET 7.9094 -0.601089 -3.4825
                  CHANNELS 3 Zrotation Xrotation Yrotation
                  JOINT LeftHandPinky2
                  {
                    OFFSET 2.2874 -0.477005 -0.6314
                    CHANNELS 3 Zrotation Xrotation Yrotation
                    JOINT LeftHandPinky3
                    {
                      OFFSET 1.6774 -0.349396 -0.4633
                      CHANNELS 3 Zrotation Xrotation Yrotation
                      End Site
                      {
                        OFFSET 1.4888 -0.4091 -0.3416
                      }
                    }
                  }
                }
                JOINT LeftHandThumb1
                {
                  OFFSET 1.833 -1.3875 1.3896
                  CHANNELS 3 Zrotation Xrotation Yrotation
                  JOINT LeftHandThumb2
                  {
                    OFFSET 3.4129 -1.121 2.5732
                    CHANNELS 3 Zrotation Xrotation Yrotation
                    JOINT LeftHandThumb3
                    {
                      OFFSET 2.2474 -0.804199 1.6192
                      CHANNELS 3 Zrotation Xrotation Yrotation
                      End Site
                      {
                        OFFSET 1.6527 -0.5689 1.1317
                      }
                    }
                  }
                }
              }
            }
          }
        }
        JOINT RightShoulder
        {
          OFFSET -2.2086 21.1115 7.2329
          CHANNELS 3 Zrotation Xrotation Yrotation
          JOINT RightArm
          {
            OFFSET -13.1216 3.0287 -4.9007
            CHANNELS 3 Zrotation Xrotation Yrotation
            JOINT RightForeArm
            {
              OFFSET -27.4081 -0.0973053 -0.2375
              CHANNELS 3 Zrotation Xrotation Yrotation
              JOINT RightHand
              {
                OFFSET -22.8641 0.0664063 -0.1369
                CHANNELS 3 Zrotation Xrotation Yrotation
                JOINT RightHandIndex1
                {
                  OFFSET -8.8614 0.774994 2.4612
                  CHANNELS 3 Zrotation Xrotation Yrotation
                  JOINT RightHandIndex2
                  {
                    OFFSET -3.3146 -0.808304 0.5841
                    CHANNELS 3 Zrotation Xrotation Yrotation
                    JOINT RightHandIndex3
                    {
                      OFFSET -2.2628 -0.552002 0.3989
                      CHANNELS 3 Zrotation Xrotation Yrotation
                      End Site
                      {
                        OFFSET -1.6102 -0.4807 0.2612
                      }
                    }
                  }
                }
                JOINT RightHandMiddle1
                {
                  OFFSET -8.9937 0.894989 0.2143
                  CHANNELS 3 Zrotation Xrotation Yrotation
                  JOINT RightHandMiddle2
                  {
                    OFFSET -4.0984 0.0113983 -0.0242
                    CHANNELS 3 Zrotation Xrotation Yrotation
                    JOINT RightHandMiddle3
                    {
                      OFFSET -2.2716 0.00691223 -0.0138001
                      CHANNELS 3 Zrotation Xrotation Yrotation
                      End Site
                      {
                        OFFSET -2.0404 -0.1441 0.0027
                      }
                    }
                  }
                }
                JOINT RightHandRing1
                {
                  OFFSET -8.5234 0.597198 -2.0164
                  CHANNELS 3 Zrotation Xrotation Yrotation
                  JOINT RightHandRing2
                  {
                    OFFSET -3.7188 -0.188309 -0.2328
                    CHANNELS 3 Zrotation Xrotation Yrotation
                    JOINT RightHandRing3
                    {
                      OFFSET -2.1191 -0.106598 -0.1332
                      CHANNELS 3 Zrotation Xrotation Yrotation
                      End Site
                      {
                        OFFSET -1.8737 -0.2304 -0.0886
                      }
                    }
                  }
                }
                JOINT RightHandPinky1
                {
                  OFFSET -7.9094 -0.601105 -3.4825
                  CHANNELS 3 Zrotation Xrotation Yrotation
                  JOINT RightHandPinky2
                  {
                    OFFSET -2.2874 -0.477005 -0.6314
                    CHANNELS 3 Zrotation Xrotation Yrotation
                    JOINT RightHandPinky3
                    {
                      OFFSET -1.6774 -0.349396 -0.4633
                      CHANNELS 3 Zrotation Xrotation Yrotation
                      End Site
                      {
                        OFFSET -1.4888 -0.4091 -0.3416
                      }
                    }
                  }
                }
                JOINT RightHandThumb1
                {
                  OFFSET -1.833 -1.38751 1.3896
                  CHANNELS 3 Zrotation Xrotation Yrotation
                  JOINT RightHandThumb2
                  {
                    OFFSET -3.41299 -1.12099 2.5732
                    CHANNELS 3 Zrotation Xrotation Yrotation
                    JOINT RightHandThumb3
                    {
                      OFFSET -2.24741 -0.804108 1.6192
                      CHANNELS 3 Zrotation Xrotation Yrotation
                      End Site
                      {
                        OFFSET -1.6527 -0.5689 1.1317
                      }
                    }
                  }
                }
              }
            }
          }
        }
      }
    }
  }
  JOINT RightUpLeg
  {
    OFFSET -9.1966 3.8861 -0.7581
    CHANNELS 3 Zrotation Xrotation Yrotation
    JOINT RightLeg
    {
      OFFSET -0.7359 -41.0265 0
      CHANNELS 3 Zrotation Xrotation Yrotation
      JOINT RightFoot
      {
        OFFSET 0 -40.2855 0
        CHANNELS 3 Zrotation Xrotation Yrotation
        JOINT RightToeBase
        {
          OFFSET 0 -5.6122 11.7359
          CHANNELS 3 Zrotation Xrotation Yrotation
          End Site
          {
            OFFSET 0 0 7.8731
          }
        }
      }
    }
  }
  JOINT LeftUpLeg
  {
    OFFSET 9.1965 3.8864 -0.7581
    CHANNELS 3 Zrotation Xrotation Yrotation
    JOINT LeftLeg
    {
      OFFSET 0.7359 -41.0268 0
      CHANNELS 3 Zrotation Xrotation Yrotation
      JOINT LeftFoot
      {
        OFFSET 0 -40.2855 0
        CHANNELS 3 Zrotation Xrotation Yrotation
        JOINT LeftToeBase
        {
          OFFSET 0 -5.6122 11.7359
          CHANNELS 3 Zrotation Xrotation Yrotation
          End Site
          {
            OFFSET 0 0 7.8731
          }
        }
      }
    }
  }
}
MOTION
Frames:	7
Frame Time:	0.0333333
5.84602e-005 68.8428 3.50346 0 0 -0 0 0 -0 0 0 -0 0 0 -0 0 0 -0 0 0 -0 0 0 -0 0 0 -0 0 0 -0 0 0 -0 0 0 -0 0 0 -0 0 0 -0 0 0 -0 -0.0146107 -8.87603e-005 -2.63497e-007 2.99804e-018 -2.42657e-020 -1.42182e-022 0 0 -0 -0.0187562 -0.001176 5.858e-005 5.06224e-018 3.88251e-019 1.21329e-020 0 0 -0 -0.012269 -0.00324817 0.000675346 -1.74678e-018 3.88251e-019 -0 0 0 -0 0 0 -0 0 0 -0 0 0 -0 0 0 -0 0 0 -0 0 0 -0 0 0 -0 0 0 -0 0 0 -0 0 0 -0 0.0149955 -9.10982e-005 2.64101e-007 -9.69331e-018 1.21329e-020 -4.7394e-023 0 0 -0 0.0189956 -0.00119102 -5.96516e-005 -5.41541e-019 0 2.42657e-020 0 0 -0 0.0122698 -0.00324857 -0.000673756 -2.00796e-019 0 -1.94126e-019 0 0 -0 0 0 -0 0 0 -0 3.39842 1.33031 -0.0637918 -5.65207e-008 0.834868 -0.000436188 -3.39935 -2.16518 -0.0642563 -8.89002e-024 -1.18485e-023 -1.48106e-024 -3.39844 1.35642 0.0640283 -3.18788e-007 0.782166 -0.000588827 3.39931 -2.13858 0.0634662 1.1399e-023 0 -0 
-2.19519 23.6618 51.5653 -43.5814 -33.0364 119.809 -0.212862 1.83764 -0.0773011 -0.423575 3.67553 -0.147845 -0.423572 3.67554 -0.147846 0.000124835 -17.8192 -7.0805e-006 -0.0450003 -23.2548 -0.0240482 19.7426 6.69878 -4.81137 -19.2857 -41.1472 -27.0141 -7.76811 -3.44754 -94.351 7.52614 7.99107 -4.81058 2.78299e-015 0 -3.97569e-015 3.18055e-015 3.18055e-015 7.95139e-016 1.19271e-015 0 -0 2.78299e-015 0 -3.97569e-015 -0.0145605 -8.78112e-005 -1.85807e-006 -3.97569e-016 -9.54166e-015 7.95139e-016 2.78299e-015 0 -3.97569e-015 -0.0187891 -0.00117601 5.80867e-005 4.77083e-015 -3.18055e-015 7.95139e-016 2.78299e-015 0 -3.97569e-015 -0.0122338 -0.00323991 0.000674014 -3.18055e-015 -3.18055e-015 -0 2.78299e-015 0 -3.97569e-015 3.18055e-015 3.18055e-015 7.95139e-016 1.19271e-015 0 -0 -19.9281 6.72188 4.95754 22.2625 -39.8728 31.6141 7.78744 -3.46062 94.3342 -17.3463 -0.0238469 5.39254 -7.95139e-016 1.98785e-015 3.18055e-015 -5.51738e-032 1.98785e-015 1.59028e-015 -7.95139e-016 1.88845e-015 -0 -7.95139e-016 1.98785e-015 3.18055e-015 0.014971 -8.94121e-005 -1.81481e-006 -1.59028e-015 -1.90833e-014 -3.18055e-015 -7.95139e-016 1.98785e-015 3.18055e-015 0.0190448 -0.00119332 -5.65873e-005 -6.57554e-007 -1.4639e-006 1.20627e-006 -7.95139e-016 1.98785e-015 3.18055e-015 0.0121928 -0.00322887 -0.0006768 1.59028e-015 -3.38928e-014 -1.27222e-014 -7.95139e-016 1.98785e-015 3.18055e-015 -5.51738e-032 1.98785e-015 1.59028e-015 -7.95139e-016 1.88845e-015 -0 -70.1904 -41.6041 -65.3193 174.202 76.6629 -177.899 -6.63649 10.5162 -2.2818 -1.32803e-006 -6.20553e-007 1.95326e-007 70.1884 -41.6049 65.3153 -174.128 76.6624 177.824 6.63053 10.5161 2.28999 9.50957e-007 -7.74628e-007 -1.17517e-006 
1.26021 5.30164 77.0388 43.3442 -70.9564 -135.04 -0.337218 2.644 -0.104178 -0.670714 5.28868 -0.19307 -0.67071 5.28865 -0.193072 -0.000112912 -25.6546 -2.98036e-005 -0.0726818 -33.5363 -0.03827 28.9308 9.8315 -7.18343 -46.4715 -52.0972 -52.1107 -22.6281 -38.2842 -122.501 11.2967 11.5974 -7.16228 -4.33041e-007 -6.47101e-007 3.3663e-007 -4.33041e-007 -6.47101e-007 3.3663e-007 -9.27032e-008 1.39884e-006 5.85007e-006 -4.33041e-007 -6.47101e-007 3.3663e-007 -0.0146233 -9.40644e-005 1.53557e-006 -9.22317e-008 1.39809e-006 5.85025e-006 -4.33041e-007 -6.47101e-007 3.3663e-007 -0.018775 -0.00118194 6.189e-005 -9.20429e-008 1.39791e-006 5.8503e-006 -4.33041e-007 -6.47101e-007 3.3663e-007 -0.0123111 -0.00325746 0.000684586 1.04047e-007 9.58185e-007 3.85115e-006 -4.33041e-007 -6.47101e-007 3.3663e-007 -4.33041e-007 -6.47101e-007 3.3663e-007 -9.27032e-008 1.39884e-006 5.85007e-006 -29.2251 9.86072 7.4069 50.8003 -48.1871 57.688 22.6281 -38.4455 122.286 -25.0751 0.00211782 7.93898 -1.05621e-006 2.61835e-006 1.68683e-006 3.67456e-006 -1.56214e-006 -2.60669e-006 -1.05621e-006 2.61835e-006 1.68683e-006 -1.05621e-006 2.61835e-006 1.68683e-006 0.0149937 -9.71267e-005 -3.72377e-006 -1.05609e-006 2.61857e-006 1.68649e-006 -1.05621e-006 2.61835e-006 1.68683e-006 0.0189987 -0.00119389 -5.87687e-005 -1.05604e-006 2.61862e-006 1.68641e-006 -1.05621e-006 2.61835e-006 1.68683e-006 0.0122782 -0.00324867 -0.000681926 -1.05608e-006 2.6185e-006 1.68658e-006 -1.05621e-006 2.61835e-006 1.68683e-006 3.67456e-006 -1.56214e-006 -2.60669e-006 -1.05621e-006 2.61835e-006 1.68683e-006 -116.741 -30.4236 -99.0045 177.596 32.904 174.546 -6.4987 16.2379 -5.81271 2.53477e-006 1.13536e-006 -1.24168e-006 116.741 -30.4289 99.0009 -177.577 32.9053 -174.577 6.48811 16.2369 5.82479 8.47197e-007 1.31695e-006 -3.85518e-006 
-0.000790586 9.26908 71.6446 -0.0131249 -71.0095 179.991 -0.308122 2.41958 -0.0999252 -0.612838 4.83962 -0.187062 -0.612838 4.83965 -0.187062 -2.4718e-005 -23.506 -4.35073e-006 -0.0656856 -30.8444 -0.0342454 26.7114 9.48711 -6.99276 -39.1811 -50.5011 -45.5426 -17.4615 -29.6838 -116.538 10.2912 10.9244 -6.87986 4.17864e-006 -1.49884e-006 -1.50826e-006 3.58314e-006 1.24441e-007 -1.10378e-006 2.98764e-006 1.74772e-006 -6.99301e-007 4.17864e-006 -1.49884e-006 -1.50826e-006 -0.0146009 -9.07388e-005 -1.84816e-006 3.58323e-006 1.24582e-007 -1.10377e-006 4.17864e-006 -1.49884e-006 -1.50826e-006 -0.01875 -0.00117432 5.8873e-005 3.58325e-006 1.24627e-007 -1.1038e-006 4.17864e-006 -1.49884e-006 -1.50826e-006 -0.012265 -0.0032509 0.000676667 2.98938e-006 1.74824e-006 -6.99296e-007 4.17864e-006 -1.49884e-006 -1.50826e-006 3.58314e-006 1.24441e-007 -1.10378e-006 2.98764e-006 1.74772e-006 -6.99301e-007 -27.0089 9.51126 7.22014 43.4868 -47.4452 51.0249 17.4759 -29.8079 116.384 -23.1893 0.0777048 7.63926 3.32774e-006 -6.37771e-008 -1.51697e-006 -1.35463e-007 1.39087e-007 -3.42918e-006 7.43099e-006 -1.61049e-006 -3.46235e-007 3.32774e-006 -6.37771e-008 -1.51697e-006 0.0149759 -9.30539e-005 -2.21842e-006 7.43144e-006 -1.61054e-006 -3.46031e-007 3.32774e-006 -6.37771e-008 -1.51697e-006 0.0190004 -0.00119095 -6.00392e-005 7.43156e-006 -1.61058e-006 -3.46047e-007 3.32774e-006 -6.37771e-008 -1.51697e-006 0.0122736 -0.00325034 -0.000688693 7.43136e-006 -1.61059e-006 -3.46295e-007 3.32774e-006 -6.37771e-008 -1.51697e-006 -1.35463e-007 1.39087e-007 -3.42918e-006 7.43099e-006 -1.61049e-006 -3.46235e-007 -107.446 -33.9452 -92.13 177.334 42.5272 176.453 -6.87874 15.1312 -4.42829 -4.52248e-006 5.1333e-006 9.39944e-006 107.445 -33.9504 92.1262 -177.311 42.5281 -176.485 6.86926 15.1305 4.43957 -3.14726e-006 -4.33653e-006 5.52076e-006 
-0.000792357 9.26697 71.5526 -0.0131248 -71.0093 179.991 -0.307955 2.38255 -0.100534 -0.612518 4.76557 -0.188483 -0.612518 4.76557 -0.188482 -2.66462e-005 -23.1729 -4.49885e-006 -0.065424 -30.5112 -0.0338236 26.586 9.77281 -7.27168 -39.1811 -50.5011 -45.5426 -17.4615 -29.6838 -116.538 10.1757 11.0265 -7.08173 -2.85101e-006 1.78132e-006 -2.82023e-006 6.66444e-007 1.4582e-006 -5.04883e-007 -2.9164e-006 1.33289e-006 6.01054e-007 -2.85101e-006 1.78132e-006 -2.82023e-006 -0.0146093 -8.9495e-005 -4.08662e-006 -2.91653e-006 1.33281e-006 6.01226e-007 -2.85101e-006 1.78132e-006 -2.82023e-006 -0.0187448 -0.00117435 5.81081e-005 -2.91656e-006 1.33278e-006 6.01302e-007 -2.85101e-006 1.78132e-006 -2.82023e-006 -0.0122556 -0.00324366 0.000674662 -2.91648e-006 1.33281e-006 6.01285e-007 -2.85101e-006 1.78132e-006 -2.82023e-006 6.66444e-007 1.4582e-006 -5.04883e-007 -2.9164e-006 1.33289e-006 6.01054e-007 -26.9067 9.79362 7.51663 43.4452 -47.5666 50.818 17.4759 -29.8079 116.384 -23.0519 0.144897 7.85685 -1.59028e-015 6.16232e-015 9.54166e-015 -1.98785e-016 -9.93923e-016 6.36111e-015 7.95139e-016 -3.97569e-015 -3.18055e-015 -1.59028e-015 6.16232e-015 9.54166e-015 0.0149751 -9.1145e-005 1.18036e-006 -7.78685e-007 9.46391e-007 8.32398e-007 -1.59028e-015 6.16232e-015 9.54166e-015 0.0190081 -0.00119305 -5.9227e-005 8.94531e-015 -3.18055e-015 -0 -1.59028e-015 6.16232e-015 9.54166e-015 0.0122517 -0.00324342 -0.000672048 2.18663e-015 1.59028e-015 -9.54166e-015 -1.59028e-015 6.16232e-015 9.54166e-015 -1.98785e-016 -9.93923e-016 6.36111e-015 7.95139e-016 -3.97569e-015 -3.18055e-015 -107.219 -33.9196 -91.9893 177.334 42.5272 176.455 -6.87829 15.1346 -4.42694 2.00353e-006 -3.39006e-010 -2.56216e-006 107.217 -33.9257 91.9854 -177.311 42.5281 -176.487 6.86882 15.1338 4.43822 -2.99597e-007 -1.09522e-005 1.09067e-006 
-0.000793333 9.26489 71.4606 -0.0131249 -71.0095 179.991 -0.307789 2.34552 -0.101144 -0.612201 4.69151 -0.189902 -0.612201 4.69151 -0.189902 -5.87525e-006 -22.8406 -1.36851e-006 -0.0651657 -30.178 -0.0334047 26.4619 10.0591 -7.55026 -39.1811 -50.5011 -45.5426 -17.4616 -29.6838 -116.538 10.0606 11.1291 -7.28345 2.16804e-006 2.34244e-006 -8.55728e-007 4.07861e-006 3.61676e-006 -2.27049e-006 2.16803e-006 2.34244e-006 -8.55728e-007 2.16804e-006 2.34244e-006 -8.55728e-007 -0.014637 -8.6254e-005 -3.80997e-006 2.16904e-006 2.34256e-006 -8.5543e-007 2.16804e-006 2.34244e-006 -8.55728e-007 -0.0187567 -0.00117783 5.6455e-005 2.16932e-006 2.34266e-006 -8.55371e-007 2.16804e-006 2.34244e-006 -8.55728e-007 -0.0122792 -0.00325348 0.000676311 2.16887e-006 2.34274e-006 -8.55585e-007 2.16804e-006 2.34244e-006 -8.55728e-007 4.07861e-006 3.61676e-006 -2.27049e-006 2.16803e-006 2.34244e-006 -8.55728e-007 -26.8059 10.0765 7.81294 43.4028 -47.6879 50.6105 17.4759 -29.8079 116.384 -22.9149 0.212618 8.07432 1.03368e-014 7.15625e-015 9.54166e-015 9.93923e-016 2.78299e-015 3.18055e-015 -7.95139e-016 -1.98785e-015 -6.36111e-015 1.03368e-014 7.15625e-015 9.54166e-015 0.0149834 -8.82305e-005 -2.68118e-006 -7.7565e-007 9.58765e-007 8.29844e-007 1.03368e-014 7.15625e-015 9.54166e-015 0.0190079 -0.00119219 -5.40539e-005 -7.95139e-016 -2.38542e-015 -0 1.03368e-014 7.15625e-015 9.54166e-015 0.0122719 -0.00324773 -0.000671259 7.95139e-016 -7.7526e-015 -0 1.03368e-014 7.15625e-015 9.54166e-015 9.93923e-016 2.78299e-015 3.18055e-015 -7.95139e-016 -1.98785e-015 -6.36111e-015 -106.991 -33.8936 -91.8487 177.334 42.5273 176.456 -6.87785 15.138 -4.42559 -1.24361e-006 -1.60126e-006 -2.62989e-006 106.99 -33.9005 91.8448 -177.311 42.5281 -176.488 6.86838 15.1372 4.43686 -2.39101e-006 -4.9687e-006 -1.9283e-006 
-0.000794339 9.26281 71.3687 -0.0131249 -71.0095 179.991 -0.307624 2.30849 -0.101753 -0.611886 4.61745 -0.191322 -0.611886 4.61748 -0.191322 -3.13236e-006 -22.5073 -1.61836e-007 -0.0649118 -29.8447 -0.0329882 26.339 10.3461 -7.82853 -39.1811 -50.5011 -45.5426 -17.4615 -29.6838 -116.538 9.94576 11.232 -7.48509 -2.91661e-006 1.3312e-006 6.06149e-007 -2.74175e-006 -6.95959e-007 1.26256e-006 -2.91661e-006 1.3312e-006 6.06149e-007 -2.91661e-006 1.3312e-006 6.06149e-007 -0.0146295 -9.22739e-005 1.09471e-006 -2.91674e-006 1.33112e-006 6.06322e-007 -2.91661e-006 1.3312e-006 6.06149e-007 -0.0187571 -0.00118033 6.53482e-005 -2.91677e-006 1.33109e-006 6.06398e-007 -2.91661e-006 1.3312e-006 6.06149e-007 -0.0122603 -0.00324623 0.000675516 -2.91669e-006 1.33112e-006 6.0638e-007 -2.91661e-006 1.3312e-006 6.06149e-007 -2.74175e-006 -6.95959e-007 1.26256e-006 -2.91661e-006 1.3312e-006 6.06149e-007 -26.7065 10.36 8.10907 43.3597 -47.8091 50.4023 17.4759 -29.8079 116.384 -22.778 0.280869 8.29166 4.77083e-015 -3.77691e-015 3.18055e-015 3.37934e-015 -7.7526e-015 -3.18055e-015 1.19271e-015 6.16232e-015 3.18055e-015 4.77083e-015 -3.77691e-015 3.18055e-015 0.0149938 -8.94343e-005 -5.41092e-006 -1.19271e-015 -4.57205e-015 -9.54166e-015 4.77083e-015 -3.77691e-015 3.18055e-015 0.0190142 -0.00119114 -5.88697e-005 -1.39149e-015 7.95139e-015 -0 4.77083e-015 -3.77691e-015 3.18055e-015 0.0122858 -0.00325337 -0.000674957 -2.78299e-015 7.95139e-015 -0 4.77083e-015 -3.77691e-015 3.18055e-015 3.37934e-015 -7.7526e-015 -3.18055e-015 1.19271e-015 6.16232e-015 3.18055e-015 -106.764 -33.8671 -91.7083 177.334 42.5272 176.458 -6.87738 15.1413 -4.42423 -8.88753e-006 1.75077e-006 -2.08338e-006 106.763 -33.8749 91.7043 -177.311 42.5281 -176.49 6.86794 15.1406 4.43552 2.80723e-006 2.63813e-006 -9.52409e-007 
